<svg width="90" height="92" viewBox="0 0 90 92" fill="none" xmlns="http://www.w3.org/2000/svg">
<path d="M10.19 0H9.43096C8.9526 0 8.46785 0.0936561 8.00225 0.16234L7.43459 0.243514C6.86056 0.318442 6.28652 0.418348 5.85281 0.499519L5.32342 0.586935C4.95232 0.637497 4.58405 0.706268 4.21999 0.792987C3.99038 0.855426 3.75439 0.930354 3.51202 1.01777C3.22921 1.11917 2.9524 1.2359 2.68286 1.36743C2.45547 1.50796 2.24194 1.66891 2.04504 1.84821L1.98126 1.90441L1.91748 1.96061C1.67399 2.1789 1.45969 2.42645 1.27966 2.69739C1.18602 2.8337 1.10491 2.97788 1.03729 3.12822L0.877836 3.26559C0.482818 3.65527 0.254678 4.17788 0.240019 4.72668C0.157103 5.76942 0.0614301 7.15559 0.0104047 8.56672C0.0104047 8.98507 0.0104047 9.40966 0.0104047 9.81552C0.0104047 9.97786 0.0104047 10.134 0.0104047 10.2901C0.0104047 10.9706 0.0104047 11.6512 0.0104047 12.3318C0.0104047 13.2122 0.0104047 14.1051 0.0104047 14.973C0.0104047 16.4778 -0.0342413 18.0263 0.0614312 19.5499C0.10997 20.3018 0.20368 21.0503 0.342072 21.7914C0.453038 22.3775 0.668966 22.9398 0.979889 23.4523C1.55368 24.3207 2.39301 24.9894 3.37808 25.363C3.85783 25.5727 4.35501 25.7419 4.86419 25.8688C5.28515 25.9687 5.71887 26.0311 6.13982 26.0935C6.73937 26.1747 7.3453 26.2371 7.86193 26.2871C8.37856 26.3371 8.96535 26.3808 9.57766 26.412C10.19 26.4432 10.6364 26.4557 11.0957 26.4557C11.825 26.4599 12.5537 26.4161 13.277 26.3246L13.564 26.2933C13.9283 26.2534 14.2902 26.195 14.6483 26.1185C14.9673 26.0469 15.2824 25.9593 15.5923 25.8563C16.2727 25.6334 16.9338 25.3578 17.5695 25.0321C17.803 24.9102 18.0287 24.7746 18.2456 24.6262V24.6262C18.6164 24.3966 18.9625 24.1309 19.2788 23.8332C19.798 23.3432 20.2292 22.7712 20.5545 22.1411C20.9595 21.351 21.2535 20.5108 21.4283 19.6435C21.5801 18.8776 21.6908 18.1043 21.76 17.327C21.8684 16.2655 21.8875 15.1791 21.913 14.1239V13.7929C21.913 12.4942 21.9513 11.2953 21.9513 10.1152C21.9548 8.79923 21.8137 7.48669 21.5303 6.20026C21.3684 5.50074 21.1244 4.82189 20.8032 4.17722C20.5369 3.64557 20.1638 3.17199 19.7062 2.7848C19.318 2.45706 18.8894 2.1781 18.4306 1.95437C17.7751 1.66419 17.102 1.41395 16.4151 1.20508L16.1089 1.10519C15.7198 0.980306 15.3116 0.849175 14.9098 0.736784C13.6602 0.381021 12.3787 0.142673 11.0829 0.0249717C10.8469 0.0124837 10.5152 0 10.19 0Z" fill="white" fill-opacity="0.3"/>
<path d="M46.3988 15.7534C46.773 15.7534 47.1493 15.7534 47.5278 15.7534C48.4416 15.798 49.3503 15.9149 50.2449 16.1031C50.6234 16.1808 50.9947 16.2894 51.3547 16.4278C51.8356 16.5909 52.2924 16.8155 52.7132 17.0959C53.1859 17.3941 53.5499 17.8313 53.7529 18.3447C53.881 18.6137 53.9897 18.8912 54.0782 19.1751C54.1947 19.5426 54.2821 19.9184 54.3397 20.299C54.5916 22.0504 54.6685 23.8217 54.5693 25.5877C54.5693 26.4181 54.531 27.2548 54.4927 28.0853C54.4704 29.0129 54.3937 29.9385 54.2631 30.8576C54.2283 31.1904 54.1512 31.5176 54.0335 31.8316C53.9353 32.1005 53.8159 32.3614 53.6763 32.6121C53.5361 32.8514 53.3761 33.079 53.198 33.2927C53.0433 33.493 52.8657 33.6753 52.6686 33.836C52.4682 33.9888 52.2548 34.1245 52.0308 34.2418C51.8704 34.3261 51.7042 34.3992 51.5333 34.4604C51.3443 34.539 51.1505 34.6057 50.9528 34.6602C50.7603 34.7143 50.5642 34.756 50.3661 34.785C50.0663 34.8225 49.7729 34.8725 49.4731 34.8912C48.6184 34.9474 47.7638 34.9599 46.9219 34.9349L45.5824 34.8787L44.9446 34.8225C44.6491 34.7966 44.3553 34.7549 44.0644 34.6976C43.8117 34.6582 43.5637 34.5933 43.3246 34.5041C43.0042 34.3883 42.6982 34.2375 42.4125 34.0545C42.1079 33.8511 41.846 33.5925 41.6407 33.2927C41.4521 32.9962 41.2981 32.68 41.1815 32.3499C41.0176 31.869 40.9169 31.3696 40.8817 30.8638C40.7967 30.0925 40.7626 29.3167 40.7797 28.5411C40.7797 26.824 40.8498 25.1006 40.8754 23.3835C40.8754 22.551 40.8754 21.7185 40.8754 20.886V20.555C40.8382 20.215 40.8233 19.8729 40.8307 19.531C40.8307 19.4561 40.8307 19.3812 40.8307 19.3062C40.8307 18.9878 40.8307 18.6818 40.7861 18.3572C40.779 18.1791 40.8131 18.0017 40.886 17.8385C40.9589 17.6752 41.0687 17.5302 41.207 17.4143C41.2602 17.3116 41.3221 17.2135 41.392 17.1208C41.6344 16.7767 41.9611 16.4976 42.3423 16.3091C42.5783 16.1921 42.8236 16.094 43.0758 16.0157C43.2585 15.968 43.4437 15.9305 43.6307 15.9033C44.1179 15.8232 44.6102 15.7773 45.1041 15.7659L46.3988 15.7534ZM44.1218 18.0949C43.975 18.1207 43.8301 18.1562 43.6881 18.2011L43.5478 18.2822L43.5032 18.3259V18.3572C43.5542 19.1501 43.5988 19.9431 43.618 20.7424C43.669 22.4074 43.7115 24.085 43.7455 25.775C43.7455 27.3797 43.7455 28.9781 43.9688 30.5704C44.022 30.9369 44.1073 31.2983 44.2239 31.6506V31.6943L44.3515 31.763C44.6516 31.8598 44.9585 31.9349 45.2699 31.9877C46.048 32.0752 46.8326 32.1313 47.6171 32.1751C48.4177 32.2281 49.221 32.2281 50.0216 32.1751C50.2991 32.1285 50.5722 32.0596 50.838 31.969L51.0358 31.8566C51.1192 31.78 51.198 31.6987 51.2718 31.6131C51.3667 31.471 51.4519 31.3229 51.5269 31.1698C51.5905 30.9966 51.6416 30.8192 51.68 30.639C51.8138 29.09 51.8649 27.5353 51.833 25.981C51.8704 24.3417 51.8214 22.7015 51.6863 21.067C51.6084 20.4957 51.4738 19.9332 51.2845 19.3874L51.2207 19.2813L51.1187 19.1751C50.9141 19.0488 50.701 18.9362 50.4809 18.8379C50.3278 18.7817 50.1811 18.7255 50.0216 18.6818C49.8622 18.6381 49.5369 18.5507 49.2945 18.4945C48.8365 18.3799 48.3723 18.2902 47.9041 18.226C47.2663 18.1511 46.6731 18.0887 46.0544 18.0512L44.9574 18.0574C44.6783 18.0522 44.3992 18.0647 44.1218 18.0949V18.0949Z" fill="white" fill-opacity="0.3"/>
<path d="M65.2079 58.0189C66.0307 58.0189 66.8598 58.0189 67.6826 58.0751C68.0972 58.0751 68.5054 58.1313 68.92 58.1313C69.3346 58.1313 69.6854 58.1313 70.0681 58.1313C70.9822 58.1547 71.8921 58.2634 72.7852 58.456C73.5761 58.6308 74.3733 58.7807 75.1642 58.968C76.1632 59.1223 77.1187 59.4773 77.9706 60.0107C78.2529 60.2042 78.5137 60.426 78.7487 60.6726C79.0041 60.934 79.2189 61.2306 79.3866 61.553C79.6164 62.0031 79.8022 62.4735 79.9415 62.9579C80.1583 63.7134 80.3497 64.4752 80.5474 65.2369C80.962 66.7979 81.2235 68.3589 81.4786 69.9823C81.6125 70.8003 81.7529 71.6183 81.8677 72.4425C82.008 73.4228 82.0973 74.4093 82.1547 75.4021C82.244 77.038 82.3205 78.6739 82.2695 80.3099C82.2695 81.2215 82.1993 82.1331 82.1483 83.0447C82.0911 84.0111 81.9825 84.974 81.823 85.9294C81.7292 86.4812 81.5619 87.0186 81.3255 87.5279C81.1343 87.9152 80.892 88.2763 80.6048 88.6018C80.2774 88.9772 79.8896 89.2978 79.4567 89.5509C79.0823 89.7696 78.6922 89.9616 78.2895 90.1254H78.2449L78.0344 90.2128L77.9451 90.2502C77.556 90.4063 77.1606 90.5624 76.7588 90.6998C76.3569 90.8372 75.9615 90.9496 75.5597 91.062L74.807 91.268C74.2865 91.3918 73.758 91.4815 73.2253 91.5365C72.8298 91.5865 72.4216 91.6239 72.0198 91.6551C70.2601 91.7749 68.4951 91.8041 66.7323 91.7426C64.8923 91.7146 63.0578 91.5392 61.2471 91.2181C60.4322 91.0696 59.6271 90.8736 58.8361 90.6311C58.3263 90.4758 57.8259 90.2924 57.3372 90.0817C56.9666 89.9326 56.6172 89.7375 56.2976 89.501C55.8815 89.2219 55.5278 88.8629 55.258 88.4458C55.073 88.1346 54.9375 87.7978 54.8561 87.4467C54.7575 86.9415 54.6936 86.4305 54.6648 85.9169C54.6138 85.1239 54.5946 84.331 54.6201 83.538C54.7413 80.0913 54.7987 76.6384 54.8689 73.1917C54.9135 71.0563 54.9582 68.9209 54.9773 66.7854C54.9193 66.722 54.868 66.653 54.8242 66.5794C54.7101 66.3904 54.6506 66.1745 54.652 65.955C54.6042 65.1481 54.6042 64.3392 54.652 63.5323C54.6321 62.5861 54.8282 61.6475 55.2261 60.785C55.5101 60.2215 55.9527 59.7492 56.5017 59.4238C56.9072 59.2142 57.335 59.0488 57.7773 58.9305C58.1536 58.8244 58.53 58.6932 58.919 58.6121C59.3081 58.5309 59.6653 58.4435 60.0416 58.3873C60.4179 58.3311 60.7942 58.2687 61.1705 58.2062C61.6616 58.1313 62.1528 58.0813 62.6503 58.0376C63.4539 58.0189 64.3405 58.0189 65.2079 58.0189ZM60.4753 60.9411L59.5058 61.0784L59.7163 61.0472C59.34 61.1159 58.9701 61.2033 58.6001 61.3032C58.345 61.3719 58.0899 61.4343 57.8411 61.5218L57.6115 61.6404L57.5477 61.7091C57.4712 61.8215 57.401 61.9276 57.3309 62.0462C57.2607 62.1649 57.2735 62.271 57.2479 62.3897C57.1969 62.9142 57.1969 63.4511 57.1905 63.9819C57.1842 64.5126 57.1905 64.8685 57.1905 65.3118V65.699C57.2288 69.1082 57.3053 72.5236 57.3819 75.9328C57.4202 77.6999 57.452 79.4607 57.4967 81.2215C57.535 82.7575 57.5796 84.2935 57.7646 85.817C57.808 86.1636 57.8805 86.5061 57.9814 86.841V86.8972L58.1473 87.0533C58.3794 87.2036 58.6224 87.3372 58.8744 87.453C59.531 87.6994 60.2019 87.9079 60.8835 88.0774C61.2662 88.171 61.6489 88.2647 62.0379 88.3333C62.427 88.402 62.9373 88.4832 63.3901 88.5457C65.0849 88.7208 66.7885 88.802 68.4927 88.7892C69.3218 88.7892 70.1446 88.7892 70.9674 88.7892C71.7902 88.7892 72.479 88.6955 73.2316 88.6081C73.9704 88.47 74.6991 88.2843 75.413 88.0524C75.885 87.915 76.3442 87.7464 76.8034 87.5653L77.0139 87.4717C77.3406 87.3271 77.6542 87.1558 77.9515 86.9597L78.2002 86.7287C78.2704 86.6225 78.3342 86.5101 78.3979 86.3977C78.4905 86.1226 78.5609 85.8407 78.6084 85.5548C78.6901 84.7769 78.7306 83.9953 78.7296 83.2133C78.7296 82.3017 78.7296 81.3838 78.7296 80.4722C78.7296 79.5606 78.6914 78.7676 78.6467 77.9184C78.5574 76.3512 78.4809 74.7964 78.2831 73.2354C78.1301 72.149 77.9515 71.0688 77.8048 69.9886C77.6581 68.9084 77.4476 67.6721 77.167 66.5169C77.0394 65.93 76.9118 65.3368 76.7651 64.7499C76.6184 64.163 76.5164 63.7446 76.3442 63.2576C76.2804 63.1452 76.2166 63.0328 76.1465 62.9266C76.0595 62.8269 75.9657 62.733 75.8658 62.6457C75.7653 62.5814 75.6609 62.523 75.5533 62.4708C74.7764 62.1944 73.9843 61.9609 73.1806 61.7715C72.7469 61.6654 72.3132 61.553 71.905 61.4343C71.5548 61.3386 71.1992 61.2635 70.8398 61.2096C70.5082 61.1721 70.202 61.1471 69.8448 61.1221C69.4877 61.0972 69.1113 61.1221 68.7414 61.0722L67.5614 60.9848C66.694 60.9286 65.8202 60.8786 64.9464 60.8412C64.0726 60.8037 63.2689 60.76 62.4334 60.7912C61.7892 60.785 61.1323 60.8599 60.4753 60.9411Z" fill="white" fill-opacity="0.3"/>
<path d="M71.6756 22.0911H72.3134C73.1681 22.0911 74.0228 22.1473 74.8647 22.1972C75.7066 22.2472 76.5996 22.3034 77.467 22.3408C78.3344 22.3783 79.1062 22.4719 79.929 22.5219C80.7518 22.5718 81.6128 22.653 82.4802 22.7092C83.413 22.7402 84.3383 22.8828 85.2356 23.1338C85.7069 23.2908 86.1636 23.4872 86.6005 23.7207C87.1012 23.9689 87.5475 24.3104 87.9144 24.726C88.2227 25.0851 88.4821 25.4818 88.6862 25.9061C88.8839 26.3619 89.0625 26.8177 89.2156 27.2923C89.4695 28.047 89.6552 28.8222 89.7705 29.6088C89.9077 30.5523 89.9844 31.5032 90.0001 32.456C89.9991 33.2366 89.9501 34.0165 89.8534 34.7913C89.7577 35.7279 89.6876 36.6645 89.5154 37.5948C89.3764 38.4111 89.1629 39.2136 88.8775 39.9925C88.7074 40.4462 88.4938 40.8831 88.2397 41.2975C88.1172 41.4769 87.9852 41.6499 87.8443 41.8158C87.7634 41.9302 87.6715 42.0368 87.57 42.1342C87.3001 42.3752 87.0026 42.5847 86.6835 42.7586C85.7595 43.2094 84.749 43.4647 83.7176 43.5079C82.8693 43.6015 82.021 43.6702 81.1663 43.7202C80.3117 43.7701 79.4634 43.7701 78.6151 43.7764C77.7668 43.7826 76.9249 43.7764 76.0638 43.7764C75.2028 43.7764 74.2715 43.7764 73.3722 43.7264C72.4729 43.6765 71.7458 43.614 70.9358 43.5578C70.1257 43.5016 69.2455 43.4205 68.3845 43.3206C67.8041 43.2519 67.2237 43.1832 66.6496 43.0708C66.219 42.9893 65.7932 42.885 65.374 42.7586C64.269 42.5094 63.2625 41.9495 62.4783 41.1476C62.2567 40.8976 62.0562 40.6303 61.8788 40.3484C61.7038 40.0541 61.5565 39.7448 61.4387 39.4243C61.2572 38.8963 61.1395 38.3494 61.0879 37.7946C61.0081 37.0119 61.0081 36.2234 61.0879 35.4407C61.1516 34.5665 61.2665 33.6923 61.3876 32.8244L61.6364 31.0137C61.7576 30.0022 61.8724 28.9969 62.0446 27.9979C62.1167 27.5988 62.2147 27.2046 62.338 26.8177C62.4533 26.4476 62.5918 26.0848 62.7526 25.7313C62.9329 25.3745 63.1579 25.041 63.4223 24.7385C63.7434 24.3418 64.1215 23.9927 64.5448 23.702L64.7298 23.677L64.851 23.6021C65.2076 23.3974 65.581 23.222 65.9672 23.0776C66.9074 22.6631 67.9273 22.4502 68.9585 22.4532V22.4532C69.1421 22.3541 69.3485 22.3025 69.5581 22.3034H69.743C70.1768 22.2472 70.6041 22.1972 71.0187 22.1722C71.2547 22.0973 71.4651 22.0911 71.6756 22.0911ZM69.3667 25.5065C69.2424 25.5207 69.1189 25.5416 68.9968 25.5689C68.7147 25.6302 68.4376 25.7116 68.1676 25.8125C67.7467 25.9873 67.3413 26.1961 66.9558 26.4369L66.8282 26.518C66.7404 26.5987 66.6574 26.6842 66.5795 26.774C66.4633 26.9396 66.3588 27.1127 66.2669 27.2923C66.0974 27.8168 65.9695 28.3533 65.8842 28.897C65.6929 30.408 65.5717 31.9316 65.3804 33.4426C65.2783 34.2855 65.2018 35.1285 65.1571 35.9776C65.1126 36.6367 65.1126 37.2979 65.1571 37.957C65.2018 38.1381 65.2464 38.3191 65.3038 38.5002C65.3679 38.6182 65.4381 38.7328 65.5143 38.8436L65.6036 38.9373C65.7864 39.0503 65.9759 39.1525 66.1713 39.2432C66.678 39.437 67.1981 39.5955 67.7275 39.7178C68.2952 39.8489 68.882 39.9238 69.4624 40.0113C70.164 40.0987 70.8656 40.1673 71.5672 40.2548C72.441 40.3672 73.3084 40.4358 74.1886 40.4795C75.9171 40.5732 77.652 40.5919 79.3868 40.6169C80.9654 40.6472 82.5444 40.5742 84.1131 40.3984C84.4056 40.3569 84.6937 40.2901 84.9741 40.1986L85.242 40.0487L85.3632 39.9238C85.5386 39.6616 85.6922 39.386 85.8224 39.0996C86.0711 38.3307 86.2567 37.5435 86.3773 36.7456C86.4411 36.2336 86.4857 35.7216 86.524 35.2096C86.5623 34.6976 86.6388 34.092 86.6835 33.53C86.7281 32.9681 86.7345 32.3686 86.7281 31.7817C86.7217 31.1948 86.6962 30.6515 86.6324 30.0896C86.563 29.541 86.4608 28.9968 86.3263 28.4599C86.1938 27.9108 86.032 27.3689 85.8415 26.8365C85.773 26.6898 85.6942 26.5479 85.6055 26.4119L85.5481 26.3557C85.3711 26.244 85.188 26.1419 84.9996 26.0497C84.6209 25.9115 84.2303 25.807 83.8324 25.7375C83.1946 25.6813 82.5568 25.6689 81.97 25.6251C81.2556 25.5689 80.5413 25.544 79.8269 25.4878C78.9914 25.4316 78.1558 25.3629 77.3203 25.3254C76.4848 25.288 75.7194 25.2505 74.9157 25.2006H74.5203C72.7918 25.2942 71.0697 25.3254 69.3667 25.5065V25.5065Z" fill="white" fill-opacity="0.3"/>
<path d="M44.0072 50.0016C44.0072 50.1577 44.0072 50.3076 44.0072 50.4637C44.0072 51.0881 43.9689 51.7125 43.9307 52.3369C43.8924 52.9613 43.8478 53.6231 43.8159 54.2663C43.784 54.9094 43.7202 55.4776 43.6819 56.0895C43.6437 56.7014 43.5799 57.3383 43.5288 57.9627C43.5068 58.6559 43.3976 59.3437 43.2036 60.0107C43.0843 60.3587 42.9327 60.6952 42.7507 61.016C42.562 61.3911 42.2973 61.7247 41.9726 61.9963C41.6969 62.2245 41.3899 62.4136 41.0605 62.5583C40.7107 62.7098 40.3531 62.8432 39.989 62.9579C39.4047 63.1451 38.805 63.283 38.1967 63.37C37.4674 63.4698 36.7325 63.5261 35.9962 63.5386C35.3907 63.5353 34.7859 63.4978 34.1848 63.4262C33.4641 63.3575 32.737 63.3075 32.0226 63.1764C31.3901 63.0729 30.7687 62.9119 30.1666 62.6956C29.8136 62.565 29.474 62.4019 29.1525 62.2086C29.0121 62.1212 28.8846 62.015 28.757 61.9214C28.6696 61.8558 28.5866 61.7849 28.5083 61.7091C28.3159 61.5111 28.1488 61.2909 28.0108 61.0535C27.6602 60.3691 27.4603 59.6203 27.424 58.8556C27.3538 58.2312 27.3028 57.6068 27.2645 56.9824C27.2262 56.358 27.2263 55.7336 27.2199 55.1092C27.2135 54.4848 27.2199 53.8604 27.2199 53.236C27.2199 52.6116 27.2199 51.9061 27.2518 51.2379C27.2837 50.5698 27.3411 50.0391 27.3857 49.4334C27.4304 48.8278 27.4878 48.1846 27.5707 47.5602C27.6217 47.1294 27.6727 46.6986 27.762 46.274C27.8263 45.9579 27.9072 45.6453 28.0044 45.3374C28.2013 44.5129 28.6455 43.7649 29.28 43.1895C29.4798 43.0248 29.6931 42.8765 29.9178 42.7461C30.1458 42.6178 30.3849 42.5091 30.6322 42.4215C31.0448 42.2831 31.4732 42.195 31.9078 42.1592C32.5122 42.0999 33.1212 42.0999 33.7256 42.1592C34.4081 42.2029 35.0778 42.2903 35.7539 42.384L37.1507 42.5651C37.9288 42.6587 38.7133 42.7399 39.4851 42.8648C39.7929 42.9214 40.0974 42.9944 40.3972 43.0833C40.684 43.1705 40.9652 43.2748 41.2391 43.3955C41.5146 43.5275 41.7718 43.6932 42.0045 43.8888C42.3104 44.1277 42.5809 44.4072 42.8081 44.7192L42.8847 44.8379L42.9421 44.9253C43.0985 45.1899 43.2349 45.4654 43.3503 45.7495C43.6698 46.4488 43.835 47.2063 43.835 47.9724V47.9724C43.9136 48.1098 43.9553 48.2644 43.9562 48.4219V48.5593C44.0008 48.8777 44.0391 49.1837 44.0582 49.5209C44.0072 49.6894 44.0072 49.8455 44.0072 50.0016ZM41.373 48.2908C41.373 48.1971 41.373 48.1035 41.322 48.0161C41.2722 47.8041 41.2083 47.5955 41.1307 47.3917C40.989 47.0797 40.8227 46.7791 40.6332 46.4925L40.563 46.3989C40.5041 46.3318 40.4401 46.2692 40.3717 46.2115C40.2436 46.1251 40.1093 46.0478 39.9698 45.9805C39.5523 45.8547 39.1259 45.7588 38.6942 45.6933C37.527 45.5559 36.3534 45.4623 35.1798 45.3249C34.542 45.25 33.9042 45.1938 33.2217 45.1563C32.712 45.1251 32.2007 45.1251 31.691 45.1563C31.5482 45.1843 31.4075 45.2219 31.27 45.2687C31.1765 45.3112 31.0869 45.3613 31.0021 45.4186L30.932 45.4872C30.8437 45.6224 30.7628 45.7621 30.6896 45.9056C30.5417 46.2821 30.4202 46.668 30.326 47.0607C30.224 47.4853 30.1666 47.9162 30.0964 48.3095C30.0326 48.834 29.9752 49.3585 29.9051 49.8768C29.8222 50.5012 29.7711 51.1693 29.7329 51.8186C29.6627 53.0987 29.65 54.3849 29.6308 55.6712C29.6063 56.8411 29.6617 58.0113 29.7967 59.174C29.8319 59.3861 29.8853 59.595 29.9561 59.7984C29.9896 59.8656 30.0279 59.9303 30.0709 59.992L30.1666 60.0856C30.37 60.2139 30.5833 60.3266 30.8044 60.4228C31.4002 60.6079 32.0102 60.7457 32.6286 60.8349C33.024 60.8786 33.4195 60.9161 33.8149 60.9411C34.2103 60.966 34.676 61.0285 35.0905 61.0597C35.5051 61.0909 35.9899 61.0972 36.4427 61.0597C36.8816 61.0586 37.3201 61.0357 37.7566 60.991C38.1862 60.9422 38.6122 60.8671 39.0322 60.7662C39.4638 60.6681 39.8896 60.5472 40.3079 60.4041C40.4216 60.3541 40.5324 60.2979 40.6395 60.2355L40.6778 60.1918C40.765 60.0614 40.8438 59.9259 40.9138 59.7859C41.0228 59.5028 41.1039 59.21 41.1562 58.9118C41.2008 58.456 41.2072 57.9939 41.2455 57.5381C41.2837 57.0823 41.3092 56.4766 41.3475 55.9459C41.3858 55.4152 41.4496 54.6971 41.4751 54.0727C41.5006 53.4483 41.5325 52.8801 41.5708 52.2869C41.5708 52.187 41.5708 52.0934 41.5708 51.9935C41.5325 50.8258 41.507 49.5521 41.373 48.2908Z" fill="white" fill-opacity="0.3"/>
</svg>
